# xmcd CD database file
#
# Track frame offsets:
#	150
#	43784
#	82682
#	125785
#	149485
#	182951
#
# Disc length: 2766 seconds
#
# Revision: 0
# Processed by: cddbd v1.5.2PL0 Copyright (c) Steve Scherf et al.
# Submitted via: CDex 1.79
#
DISCID=530acc06
DTITLE=Andrzej Jagodzinski Trio - CHOPIN les brillantes 1
DYEAR=2009
DGENRE=Jazz
TTITLE0=Prelude in E minor op. 28 nr 4
TTITLE1=Nocturne in E flat major op. 9 nr 2
TTITLE2=Etude in B minor op. 25 nr 10
TTITLE3=Mazurka in F minor op. 68 nr 4
TTITLE4=Prelude in C minor op. 28 nr 20
TTITLE5=Nocturne in B major op. 9 nr 3
EXTD=YEAR: 2009
EXTT0=
EXTT1=
EXTT2=
EXTT3=
EXTT4=
EXTT5=
PLAYORDER=
